<svg width="350" height="44" viewBox="0 0 350 44" fill="none" xmlns="http://www.w3.org/2000/svg">
<path d="M28.024 23.506H36.016V38.842C33.964 40.39 31.588 41.578 28.888 42.406C26.188 43.234 23.47 43.648 20.734 43.648C16.81 43.648 13.282 42.82 10.15 41.164C7.018 39.472 4.552 37.15 2.752 34.198C0.988 31.21 0.106 27.844 0.106 24.1C0.106 20.356 0.988 17.008 2.752 14.056C4.552 11.068 7.036 8.746 10.204 7.09C13.372 5.398 16.936 4.552 20.896 4.552C24.208 4.552 27.214 5.11 29.914 6.226C32.614 7.342 34.882 8.962 36.718 11.086L31.102 16.27C28.402 13.426 25.144 12.004 21.328 12.004C18.916 12.004 16.774 12.508 14.902 13.516C13.03 14.524 11.572 15.946 10.528 17.782C9.484 19.618 8.962 21.724 8.962 24.1C8.962 26.44 9.484 28.528 10.528 30.364C11.572 32.2 13.012 33.64 14.848 34.684C16.72 35.692 18.844 36.196 21.22 36.196C23.74 36.196 26.008 35.656 28.024 34.576V23.506ZM72.0062 28.582C72.0062 28.69 71.9522 29.446 71.8442 30.85H49.8662C50.2622 32.65 51.1982 34.072 52.6742 35.116C54.1502 36.16 55.9862 36.682 58.1822 36.682C59.6942 36.682 61.0262 36.466 62.1782 36.034C63.3662 35.566 64.4642 34.846 65.4722 33.874L69.9542 38.734C67.2182 41.866 63.2222 43.432 57.9662 43.432C54.6902 43.432 51.7922 42.802 49.2722 41.542C46.7522 40.246 44.8082 38.464 43.4402 36.196C42.0722 33.928 41.3882 31.354 41.3882 28.474C41.3882 25.63 42.0542 23.074 43.3862 20.806C44.7542 18.502 46.6082 16.72 48.9482 15.46C51.3242 14.164 53.9702 13.516 56.8862 13.516C59.7302 13.516 62.3042 14.128 64.6082 15.352C66.9122 16.576 68.7122 18.34 70.0082 20.644C71.3402 22.912 72.0062 25.558 72.0062 28.582ZM56.9402 19.888C55.0322 19.888 53.4302 20.428 52.1342 21.508C50.8382 22.588 50.0462 24.064 49.7582 25.936H64.0682C63.7802 24.1 62.9882 22.642 61.6922 21.562C60.3962 20.446 58.8122 19.888 56.9402 19.888ZM96.3526 41.596C95.5246 42.208 94.4986 42.676 93.2746 43C92.0866 43.288 90.8266 43.432 89.4946 43.432C86.0386 43.432 83.3566 42.55 81.4486 40.786C79.5766 39.022 78.6406 36.43 78.6406 33.01V21.076H74.1586V14.596H78.6406V7.522H87.0646V14.596H94.3006V21.076H87.0646V32.902C87.0646 34.126 87.3706 35.08 87.9826 35.764C88.6306 36.412 89.5306 36.736 90.6826 36.736C92.0146 36.736 93.1486 36.376 94.0846 35.656L96.3526 41.596ZM116.374 13.948H124.798V43H116.374V13.948ZM120.586 9.898C119.038 9.898 117.778 9.448 116.806 8.548C115.834 7.648 115.348 6.532 115.348 5.2C115.348 3.868 115.834 2.752 116.806 1.852C117.778 0.951997 119.038 0.501997 120.586 0.501997C122.134 0.501997 123.394 0.933998 124.366 1.798C125.338 2.662 125.824 3.742 125.824 5.038C125.824 6.442 125.338 7.612 124.366 8.548C123.394 9.448 122.134 9.898 120.586 9.898ZM150.275 13.516C153.875 13.516 156.773 14.596 158.969 16.756C161.201 18.916 162.317 22.12 162.317 26.368V43H153.893V27.664C153.893 25.36 153.389 23.65 152.381 22.534C151.373 21.382 149.915 20.806 148.007 20.806C145.883 20.806 144.191 21.472 142.931 22.804C141.671 24.1 141.041 26.044 141.041 28.636V43H132.617V13.948H140.663V17.35C141.779 16.126 143.165 15.19 144.821 14.542C146.477 13.858 148.295 13.516 150.275 13.516Z" fill="black"/>
<path d="M193.669 12.328H181.573V5.2H214.513V12.328H202.417V43H193.669V12.328ZM229.497 43.432C226.437 43.432 223.683 42.802 221.235 41.542C218.823 40.246 216.933 38.464 215.565 36.196C214.197 33.928 213.513 31.354 213.513 28.474C213.513 25.594 214.197 23.02 215.565 20.752C216.933 18.484 218.823 16.72 221.235 15.46C223.683 14.164 226.437 13.516 229.497 13.516C232.557 13.516 235.293 14.164 237.705 15.46C240.117 16.72 242.007 18.484 243.375 20.752C244.743 23.02 245.427 25.594 245.427 28.474C245.427 31.354 244.743 33.928 243.375 36.196C242.007 38.464 240.117 40.246 237.705 41.542C235.293 42.802 232.557 43.432 229.497 43.432ZM229.497 36.52C231.657 36.52 233.421 35.8 234.789 34.36C236.193 32.884 236.895 30.922 236.895 28.474C236.895 26.026 236.193 24.082 234.789 22.642C233.421 21.166 231.657 20.428 229.497 20.428C227.337 20.428 225.555 21.166 224.151 22.642C222.747 24.082 222.045 26.026 222.045 28.474C222.045 30.922 222.747 32.884 224.151 34.36C225.555 35.8 227.337 36.52 229.497 36.52ZM280.326 13.948V43H272.334V39.544C271.218 40.804 269.886 41.776 268.338 42.46C266.79 43.108 265.116 43.432 263.316 43.432C259.5 43.432 256.476 42.334 254.244 40.138C252.012 37.942 250.896 34.684 250.896 30.364V13.948H259.32V29.122C259.32 33.802 261.282 36.142 265.206 36.142C267.222 36.142 268.842 35.494 270.066 34.198C271.29 32.866 271.902 30.904 271.902 28.312V13.948H280.326ZM302.17 43.432C299.074 43.432 296.284 42.802 293.8 41.542C291.352 40.246 289.426 38.464 288.022 36.196C286.654 33.928 285.97 31.354 285.97 28.474C285.97 25.594 286.654 23.02 288.022 20.752C289.426 18.484 291.352 16.72 293.8 15.46C296.284 14.164 299.074 13.516 302.17 13.516C305.23 13.516 307.894 14.164 310.162 15.46C312.466 16.72 314.14 18.538 315.184 20.914L308.65 24.424C307.138 21.76 304.96 20.428 302.116 20.428C299.92 20.428 298.102 21.148 296.662 22.588C295.222 24.028 294.502 25.99 294.502 28.474C294.502 30.958 295.222 32.92 296.662 34.36C298.102 35.8 299.92 36.52 302.116 36.52C304.996 36.52 307.174 35.188 308.65 32.524L315.184 36.088C314.14 38.392 312.466 40.192 310.162 41.488C307.894 42.784 305.23 43.432 302.17 43.432ZM337.482 13.516C341.082 13.516 343.98 14.596 346.176 16.756C348.408 18.916 349.524 22.12 349.524 26.368V43H341.1V27.664C341.1 25.36 340.596 23.65 339.588 22.534C338.58 21.382 337.122 20.806 335.214 20.806C333.09 20.806 331.398 21.472 330.138 22.804C328.878 24.1 328.248 26.044 328.248 28.636V43H319.824V2.932H328.248V16.972C329.364 15.856 330.714 15.01 332.298 14.434C333.882 13.822 335.61 13.516 337.482 13.516Z" fill="#DD5471"/>
</svg>
